HIERARCHY
ROOT Hips
{
  OFFSET 0 89.5177 0.535
  CHANNELS 6 Xposition Yposition Zposition Zrotation Xrotation Yrotation
  JOINT Spine
  {
    OFFSET 12.0259 -0.162855 1.69034e-005
    CHANNELS 3 Zrotation Xrotation Yrotation
    JOINT Spine1
    {
      OFFSET 15.3169 -0.0121922 0
      CHANNELS 3 Zrotation Xrotation Yrotation
      JOINT Spine2
      {
        OFFSET 15.3176 -0.0121908 0
        CHANNELS 3 Zrotation Xrotation Yrotation
        JOINT Neck
        {
          OFFSET 19.9142 1.56338 0
          CHANNELS 3 Zrotation Xrotation Yrotation
          JOINT Head
          {
            OFFSET 6.92651 0 0
            CHANNELS 3 Zrotation Xrotation Yrotation
            End Site
            {
              OFFSET 20.7666 0 0
            }
          }
          JOINT LeftShoulder
          {
            OFFSET -6.20654 0.708824 7.28219
            CHANNELS 3 Zrotation Xrotation Yrotation
            JOINT LeftArm
            {
              OFFSET 14.108 0 -1.52588e-005
              CHANNELS 3 Zrotation Xrotation Yrotation
              JOINT LeftForeArm
              {
                OFFSET 28.5802 0 0
                CHANNELS 3 Zrotation Xrotation Yrotation
                JOINT LeftHand
                {
                  OFFSET 27.092 0 0
                  CHANNELS 3 Zrotation Xrotation Yrotation
                  End Site
                  {
                    OFFSET 9.55928 -0.186424 0.145352
                  }
                }
              }
            }
          }
          JOINT RightShoulder
          {
            OFFSET -6.20654 0.708866 -7.28218
            CHANNELS 3 Zrotation Xrotation Yrotation
            JOINT RightArm
            {
              OFFSET 14.108 0 1.52588e-005
              CHANNELS 3 Zrotation Xrotation Yrotation
              JOINT RightForeArm
              {
                OFFSET 28.5802 0 0
                CHANNELS 3 Zrotation Xrotation Yrotation
                JOINT RightHand
                {
                  OFFSET 27.092 0 0
                  CHANNELS 3 Zrotation Xrotation Yrotation
                  End Site
                  {
                    OFFSET 9.55929 -0.186417 -0.145354
                  }
                }
              }
            }
          }
        }
      }
    }
  }
  JOINT LeftUpLeg
  {
    OFFSET 0.005 -0.535 8.837
    CHANNELS 3 Zrotation Xrotation Yrotation
    JOINT LeftLeg
    {
      OFFSET 39.9035 0 0
      CHANNELS 3 Zrotation Xrotation Yrotation
      JOINT LeftFoot
      {
        OFFSET 39.6689 0 0
        CHANNELS 3 Zrotation Xrotation Yrotation
        JOINT LeftToe
        {
          OFFSET 10.1624 13.6296 0
          CHANNELS 3 Zrotation Xrotation Yrotation
          End Site
          {
            OFFSET 8.38147 0 0
          }
        }
      }
    }
  }
  JOINT RightUpLeg
  {
    OFFSET 0.005 -0.535 -8.837
    CHANNELS 3 Zrotation Xrotation Yrotation
    JOINT RightLeg
    {
      OFFSET 39.9035 0 0
      CHANNELS 3 Zrotation Xrotation Yrotation
      JOINT RightFoot
      {
        OFFSET 39.6689 0 0
        CHANNELS 3 Zrotation Xrotation Yrotation
        JOINT RightToe
        {
          OFFSET 10.1624 13.6296 0
          CHANNELS 3 Zrotation Xrotation Yrotation
          End Site
          {
            OFFSET 8.38147 0 0
          }
        }
      }
    }
  }
}
MOTION
Frames:	7
Frame Time:	0.0333333
353.668 85.0471 -219.941 -102.676 -37.8824 179.765 -1.78173 -2.54538 -2.85185 -3.69341 -4.99711 -5.7897 -3.69341 -4.99711 -5.78971 -8.30589e-012 -9.0191e-006 -5.27751e-005 9.09099 -14.513 5.10401 -179.444 -4.85164 -83.4546 126.766 -11.6584 131.051 -31.7126 -3.18055e-015 9.54166e-015 12.8643 -68.1385 -27.8522 -177.458 11.5268 77.4753 2.69645 -37.0752 -58.8867 -74.9194 9.54166e-015 -1.59028e-015 -11.9173 58.5531 13.3786 11.344 -6.82095 -177.627 -28.224 -9.54166e-015 -3.18055e-015 -45.6121 -7.9467 163.948 90 -3.18055e-015 -3.18055e-015 -33.7802 -21.1998 -174.376 -21.8392 -6.36111e-015 -6.36111e-015 0.15384 -5.88042 3.73917 90 6.36111e-015 -0 
359.063 82.3237 -225.085 -100.382 -36.9694 -179.121 -1.53023 -2.41827 -2.58707 -3.17235 -4.76355 -5.24453 -3.17235 -4.76355 -5.24454 -8.30788e-012 -9.0191e-006 -5.27751e-005 9.65407 -24.1499 6.23802 -179.532 -4.65792 -84.2538 121.334 -8.47812 130.231 -37.1954 5.56597e-015 -3.18055e-015 15.7103 -65.888 -30.7484 -177.645 11.1511 77.9959 5.98166 -36.4444 -54.826 -74.9923 -6.36111e-015 4.52235e-015 -9.73538 58.4918 11.273 8.61565 -1.70253 -175.001 -42.4638 3.18055e-015 -6.36111e-015 -41.5918 -8.60824 162.247 90 -3.18055e-015 -0 -35.2672 -14.0696 -170.835 -31.1759 -3.18056e-015 -7.95139e-015 8.5899 -4.46453 -14.4807 90 -1.59028e-015 -3.18055e-015 
364.384 79.3717 -229.613 -99.2251 -36.9564 -179.844 -1.35062 -2.44087 -2.06501 -2.79219 -4.83026 -4.1925 -2.79219 -4.83026 -4.19251 -8.30708e-012 -9.0191e-006 -5.27751e-005 10.4021 -34.8466 8.30379 -179.537 -4.47152 -84.0749 118.924 -6.95763 130.137 -40.3746 5.56597e-015 6.36111e-015 19.1406 -65.3898 -30.9608 -177.467 10.7773 76.687 7.90772 -33.8704 -49.6481 -73.8418 0 3.97569e-016 -8.54237 57.0585 10.6667 1.23858 2.07231 -170.175 -59.2665 -3.18055e-015 -3.18055e-015 -43.8282 -13.582 151.086 90 -3.18055e-015 3.57812e-015 -35.7502 -10.0417 -167.122 -42.1709 -3.18056e-015 -9.54167e-015 17.3279 2.73273 -21.931 90 0 3.18055e-015 
369.397 78.2728 -233.185 -100.42 -35.1335 176.789 -1.18493 -2.33384 -1.09191 -2.41716 -4.64368 -2.23451 -2.41716 -4.64368 -2.23452 -8.30808e-012 -9.0191e-006 -5.27751e-005 12.5935 -44.4961 11.1311 -179.028 -5.17164 -79.3388 124.817 -13.4293 132.596 -33.774 7.15625e-015 -9.54166e-015 18.6049 -66.632 -25.433 -176.042 10.979 70.0362 5.77988 -25.476 -42.5197 -68.3108 -9.54166e-015 9.93923e-016 -9.63162 52.3758 13.0433 -9.13071 0.655024 -166.616 -72.0308 -3.18055e-015 3.18055e-015 -46.0163 -18.6885 137.994 90 1.59028e-015 1.39149e-015 -34.8892 -8.077 -163.469 -47.3867 0 3.97569e-015 21.9494 3.19094 -20.5389 90 1.98785e-016 -6.36111e-015 
374.19 78.5672 -236.495 -99.5906 -32.0673 177.272 -0.905484 -2.31382 -0.9208 -1.85034 -4.61202 -1.88022 -1.85034 -4.61202 -1.88023 -8.30828e-012 -9.0191e-006 -5.27751e-005 14.0625 -50.7678 12.9084 -178.704 -6.84253 -79.2454 140.771 -26.2036 133.615 -12.4765 -3.97569e-015 6.36111e-015 6.16486 -67.3614 -14.2003 -175.337 10.9066 66.6805 -3.51918 -14.672 -44.6708 -55.2016 -3.18055e-015 -0 -12.2105 34.2938 12.6682 -16.3635 -2.8171 -167.904 -77.9883 0 -6.36111e-015 -41.6695 -18.1839 139.51 90 -1.59028e-015 4.77083e-015 -30.3599 -6.99944 -163.072 -49.025 -1.27222e-014 -1.59028e-015 26.6782 0.523815 -15.9245 90 0 3.18055e-015 
379.046 79.5931 -239.448 -99.3468 -26.7883 179.147 -0.875426 -1.78763 -1.05822 -1.78503 -3.5581 -2.14503 -1.78503 -3.5581 -2.14504 -8.30748e-012 -9.0191e-006 -5.27751e-005 17.2807 -53.5879 14.5467 -178.676 -7.3952 -79.8166 150.867 -34.1842 132.575 -6.99779e-006 0 6.36111e-015 -8.62978 -67.5086 -12.4311 -175.369 10.2318 65.4868 -6.12618 -4.70622 -49.9235 -47.9038 6.36111e-015 -5.96354e-015 -20.1405 22.2801 14.818 -22.53 -4.19233 -170.585 -77.0821 3.18055e-015 3.18055e-015 -36.7658 -14.6034 148.691 90 9.54166e-015 -1.11319e-014 -25.167 -3.71768 -164.111 -47.5622 -9.54167e-015 2.18663e-015 29.2198 -2.15391 -9.50363 90 1.59028e-015 -0 
384.33 81.3726 -242.432 -99.3582 -20.1307 -179.141 -0.788491 -0.79334 -1.3221 -1.5953 -1.56773 -2.65518 -1.5953 -1.56773 -2.65519 -8.30788e-012 -9.0191e-006 -5.27751e-005 20.9534 -55.515 18.2605 -178.73 -6.90296 -79.5451 154.039 -35.4472 130.847 -4.03408e-006 -1.59028e-015 -3.18055e-015 -14.3217 -70.6764 -15.0452 -175.908 8.8141 64.9699 -2.99916 0.776372 -57.3726 -50.6781 3.18055e-015 -1.78906e-015 -30.1054 23.3515 18.6335 -26.2384 -3.31342 -172.58 -68.8641 6.36111e-015 1.59028e-015 -34.762 -14.3157 149.263 90 -6.36111e-015 3.18055e-015 -17.6453 1.57033 -165.614 -40.8224 3.18056e-015 -5.56597e-015 29.9397 -4.56325 -4.81582 90 -4.77083e-015 3.18055e-015 
